<svg xmlns="http://www.w3.org/2000/svg" xmlns:xlink="http://www.w3.org/1999/xlink" width="347.785" height="268.092" viewBox="0 0 347.785 268.092">
  <defs>
    <linearGradient id="linear-gradient" y1="0.5" x2="1" y2="0.5" gradientUnits="objectBoundingBox">
      <stop offset="0" stop-color="#fed747"/>
      <stop offset="1" stop-color="#f94e43"/>
    </linearGradient>
  </defs>
  <g id="_7407" data-name="7407" transform="translate(-11.836 0.005)">
    <path id="Path_2424" data-name="Path 2424" d="M2578.06,1207.113c-1.3-.577-3.293.982-4.909,3.616l-14.238-6.337a32.23,32.23,0,0,0,3.572-17.289l14.546,1.656c.057,3.09.987,5.446,2.4,5.607,1.745.2,3.543-3.008,4.014-7.161s-.558-7.681-2.3-7.88c-1.412-.163-2.846,1.924-3.592,4.922l-15.74-1.793a32.631,32.631,0,0,0-4.838-11.314l15.7-7.022c1.622,2.63,3.62,4.185,4.918,3.606,1.6-.718,1.519-4.392-.188-8.209s-4.39-6.337-5.993-5.611c-1.3.579-1.479,3.105-.592,6.067l-16.7,7.472a32.639,32.639,0,0,0-8.585-6.728l8.144-16.731c2.932.974,5.463.883,6.084-.4.769-1.578-1.654-4.341-5.414-6.171s-7.43-2.034-8.2-.454c-.634,1.267.866,3.325,3.443,5.032l-8.179,16.8a31.667,31.667,0,0,0-10.468-2.074l-5.372-18.378c2.826-1.251,4.637-3.019,4.238-4.383-.492-1.69-4.145-2.1-8.156-.927s-6.865,3.49-6.374,5.176c.4,1.365,2.877,1.878,5.932,1.409l5.057,17.305a32.559,32.559,0,0,0-13.476,4.6l-10.233-16.179c1.8-1.5,2.746-3.169,2.174-4.083-.712-1.126-3.462-.665-6.143,1.031s-4.276,3.982-3.564,5.108c.576.91,2.493.767,4.622-.211l10.309,16.3a32.741,32.741,0,0,0-7.134,7.605l-15.664-10.47c1.363-2.771,1.616-5.292.435-6.082-1.459-.976-4.527,1.056-6.851,4.527s-3.021,7.085-1.561,8.061c1.181.788,3.411-.41,5.452-2.729l15.882,10.613a32.555,32.555,0,0,0-2.368,6.549l-17.885,1.181c-.634-3.19-2.02-5.458-3.492-5.361-1.821.12-3.059,3.779-2.77,8.171s2,7.856,3.819,7.736c1.479-.095,2.55-2.535,2.759-5.773l16.782-1.107a32.469,32.469,0,0,0,1.02,11.718l-14.855,7.235c-1.707-2.575-3.756-4.064-5.032-3.441-1.58.769-1.375,4.436.456,8.2s4.593,6.181,6.173,5.412c1.268-.621,1.367-3.152.391-6.084l14.405-7.016a32.815,32.815,0,0,0,8.41,11.542l-6.181,13.835c-2.958-.879-5.492-.7-6.069.594-.716,1.6,1.8,4.284,5.613,5.991s7.493,1.789,8.209.186c.579-1.3-.976-3.3-3.606-4.918l5.753-12.871a32.529,32.529,0,0,0,13.006,4.962c.532.08,1.056.1,1.593.156l-1.861,16.036c-3.09.051-5.448.976-5.61,2.387-.211,1.745,3,3.549,7.153,4.031s7.683-.543,7.884-2.286c.165-1.411-1.918-2.852-4.916-3.608l1.9-16.4a32.44,32.44,0,0,0,11.562-2.636l7.1,14.506c-2.573,1.713-4.058,3.765-3.433,5.04.773,1.576,4.437,1.365,8.2-.473s6.172-4.607,5.4-6.183c-.634-1.268-3.156-1.363-6.086-.38l-7.13-14.561a32.794,32.794,0,0,0,9.718-9.062l14.787,6.568c-.872,2.958-.693,5.492.606,6.067,1.6.714,4.28-1.806,5.979-5.625S2579.666,1207.827,2578.06,1207.113Z" transform="translate(-2258.252 -1009.623)" fill="#3b84ff"/>
    <path id="Path_2425" data-name="Path 2425" d="M2641.472,1343.376l-7.32-5.82a1.479,1.479,0,0,1-.237-2.074h0a1.479,1.479,0,0,1,2.075-.237l7.32,5.82a1.479,1.479,0,0,1,.237,2.074h0a1.479,1.479,0,0,1-2.074.237Z" transform="translate(-2383.959 -1169.118)" fill="#ffc22a"/>
    <path id="Path_2426" data-name="Path 2426" d="M2638.26,1357.444a2.915,2.915,0,1,1,2.453,3.314A2.915,2.915,0,0,1,2638.26,1357.444Z" transform="translate(-2387.608 -1184.927)" fill="#ffc22a"/>
    <path id="Path_2427" data-name="Path 2427" d="M2734.485,1359.851l-9.027,2.444a1.479,1.479,0,0,1-1.81-1.039h0a1.478,1.478,0,0,1,1.039-1.812l9.027-2.444a1.479,1.479,0,0,1,1.811,1.039h0A1.479,1.479,0,0,1,2734.485,1359.851Z" transform="translate(-2454.987 -1186.496)" fill="#ffc22a"/>
    <path id="Path_2428" data-name="Path 2428" d="M2741.7,1372.886a2.915,2.915,0,1,1,2.453,3.313A2.916,2.916,0,0,1,2741.7,1372.886Z" transform="translate(-2469.239 -1197.115)" fill="#ffc22a"/>
    <path id="Path_2429" data-name="Path 2429" d="M1189.02,866.66l1.939,6.756,4.726-5.759,1.466,6.684,4.559-5.786.862,6.6,4.711-5.763,1.47,6.686,3.5-5.944Z" transform="translate(-938.362 -684.114)" fill="#eaeaea"/>
    <path id="Path_2430" data-name="Path 2430" d="M2748.035,569.152c-.653.1-1.043,1.211-1.016,2.649l-7.168,1.09a14.982,14.982,0,0,0-2.934-7.67l6.115-3c.8,1.2,1.752,1.886,2.345,1.595.735-.359.634-2.066-.211-3.8s-2.144-2.871-2.877-2.512c-.594.292-.634,1.479-.175,2.831l-6.629,3.234a15.145,15.145,0,0,0-4.732-3.219l4.392-6.69c1.3.634,2.468.733,2.831.18.448-.682-.5-2.112-2.132-3.169s-3.306-1.38-3.756-.7c-.361.553.211,1.586,1.291,2.535l-4.673,7.113a15.224,15.224,0,0,0-5.051-.484l-1-8.6c1.392-.353,2.362-1.025,2.286-1.69-.095-.811-1.739-1.286-3.669-1.056s-3.422,1.056-3.327,1.878c.076.657,1.175,1.086,2.611,1.109l1.01,8.636a14.707,14.707,0,0,0-4.622,1.813l-6.716-5.856c.794-1.2,1.057-2.345.564-2.78-.617-.537-2.153.211-3.431,1.69s-1.815,3.089-1.2,3.627c.5.422,1.6.013,2.678-.936l6.321,5.513a15.176,15.176,0,0,0-4.126,5.182l-8.067-3.775c.327-1.039.283-1.931-.171-2.144-.562-.262-1.523.608-2.15,1.943s-.676,2.634-.114,2.9c.454.211,1.168-.323,1.756-1.242l8.129,3.8a15.315,15.315,0,0,0-.892,4.766l-8.762-.175c-.163-1.428-.7-2.48-1.356-2.493-.816-.015-1.508,1.546-1.548,3.492s.591,3.534,1.409,3.551c.661.013,1.236-1.016,1.453-2.438l8.883.178a15.315,15.315,0,0,0,.712,3.156l-6.711,4.939c-1.056-1.092-2.161-1.633-2.712-1.225-.685.5-.251,2.248.963,3.9s2.746,2.577,3.435,2.074c.553-.408.367-1.629-.365-2.957l6.3-4.647a15.12,15.12,0,0,0,3.338,4.337l-4.014,6.559c-1.314-.581-2.491-.651-2.835-.087-.423.7.574,2.085,2.233,3.1s3.351,1.267,3.777.573c.344-.564-.253-1.578-1.371-2.482l3.885-6.361a15.248,15.248,0,0,0,6.189,2.412l1.046,6.971c-1.38.4-2.324,1.1-2.229,1.753.12.809,1.779,1.229,3.7.94s3.38-1.177,3.262-1.986c-.1-.653-1.208-1.056-2.645-1.022l-.974-6.487a15.109,15.109,0,0,0,6.337-1.316c.228-.1.441-.226.663-.338l3.291,6.76c-1.2.794-1.9,1.747-1.6,2.343.359.733,2.066.634,3.815-.211s2.875-2.138,2.516-2.873c-.29-.594-1.466-.634-2.831-.18l-3.367-6.9a15.114,15.114,0,0,0,3.87-3.933l6.422,3.9c-.579,1.316-.646,2.493-.083,2.837.7.422,2.083-.579,3.095-2.241s1.268-3.352.566-3.777c-.566-.344-1.578.258-2.482,1.377l-6.443-3.919a15.28,15.28,0,0,0,1.534-5.989l7.438-1.132c.4,1.382,1.1,2.324,1.76,2.227.807-.123,1.226-1.781.932-3.7S2748.844,569.03,2748.035,569.152Z" transform="translate(-2434.845 -547.74)" fill="#3b84ff"/>
    <path id="Path_2431" data-name="Path 2431" d="M2773.116,672.927l-4.326-.444a.689.689,0,0,1-.613-.754h0a.687.687,0,0,1,.752-.613l4.328.444a.689.689,0,0,1,.613.754h0a.687.687,0,0,1-.754.613Z" transform="translate(-2490.157 -645.055)" fill="#ffc22a"/>
    <path id="Path_2432" data-name="Path 2432" d="M2776.335,677.5a1.356,1.356,0,1,1,1.791.682A1.356,1.356,0,0,1,2776.335,677.5Z" transform="translate(-2496.499 -648.585)" fill="#ffc22a"/>
    <path id="Path_2433" data-name="Path 2433" d="M2815.99,647.613l-2.926,3.221a.688.688,0,0,1-.969.046h0a.688.688,0,0,1-.047-.97l2.924-3.221a.689.689,0,0,1,.972-.047h0a.689.689,0,0,1,.047.97Z" transform="translate(-2524.639 -625.613)" fill="#ffc22a"/>
    <path id="Path_2434" data-name="Path 2434" d="M2820.747,657.617a1.356,1.356,0,1,1,1.791.684A1.356,1.356,0,0,1,2820.747,657.617Z" transform="translate(-2531.548 -632.903)" fill="#ffc22a"/>
    <path id="Path_2435" data-name="Path 2435" d="M1339.28,138.866l2.455,2.163.408-3.443,2.25,2.252.336-3.41,1.992,2.368.4-3.439,2.254,2.25-.12-3.207Z" transform="translate(-1056.924 -106.012)" fill="#eaeaea"/>
    <path id="Path_2436" data-name="Path 2436" d="M3045.51,1075.214c-.367-.1-.845.391-1.16,1.156l-4.029-1.115a8.65,8.65,0,0,0,.264-4.728l3.923-.137c.14.818.478,1.4.86,1.392.469-.017.82-.938.782-2.057s-.452-2.017-.923-2c-.38.013-.68.623-.76,1.449l-4.246.148a8.753,8.753,0,0,0-1.732-2.812l3.889-2.484c.534.634,1.126.968,1.447.763.4-.255.229-1.225-.376-2.172s-1.415-1.5-1.812-1.251c-.321.211-.266.883.084,1.633l-4.136,2.643a8.719,8.719,0,0,0-2.535-1.443l1.5-4.762c.815.142,1.479.017,1.6-.346.142-.45-.613-1.086-1.69-1.424s-2.052-.245-2.193.211c-.114.363.361.845,1.113,1.2l-1.5,4.781a8.488,8.488,0,0,0-2.86-.135l-2.153-4.662c.7-.444,1.111-.985.951-1.331-.2-.423-1.183-.393-2.2.076s-1.69,1.2-1.478,1.626c.158.346.845.385,1.628.14l2.028,4.39a8.718,8.718,0,0,0-3.393,1.755l-3.357-3.887c.423-.471.6-.951.423-1.17-.235-.27-.944-.038-1.589.518s-.978,1.225-.744,1.5c.188.211.691.106,1.217-.239l3.38,3.917a8.744,8.744,0,0,0-1.593,2.3l-4.572-2.157c.253-.79.211-1.479-.125-1.631-.422-.211-1.16.458-1.637,1.479s-.522,2-.095,2.2c.344.163.889-.245,1.337-.94l4.635,2.186a8.721,8.721,0,0,0-.37,1.827l-4.7,1.022c-.293-.822-.752-1.369-1.138-1.284-.478.1-.661,1.124-.41,2.277s.845,2.007,1.318,1.9c.387-.084.576-.771.5-1.641l4.408-.957a8.767,8.767,0,0,0,.735,3.067l-3.655,2.507c-.556-.615-1.155-.929-1.479-.714-.389.268-.19,1.234.446,2.157s1.462,1.46,1.851,1.192c.315-.211.239-.889-.135-1.629l3.543-2.431a8.838,8.838,0,0,0,2.689,2.729l-1.092,3.915c-.822-.116-1.479.029-1.586.4-.126.454.646,1.056,1.726,1.367s2.058.18,2.184-.274c.1-.368-.388-.845-1.151-1.162l1.016-3.644a8.7,8.7,0,0,0,3.648.8c.144,0,.285-.015.422-.021l.142,4.328c-.818.135-1.407.473-1.395.845.015.471.936.824,2.058.786s2.015-.448,2-.917c-.013-.382-.621-.68-1.447-.763l-.144-4.436a8.744,8.744,0,0,0,2.957-1.158l2.459,3.566c-.615.558-.927,1.16-.71,1.479.266.387,1.231.186,2.155-.452s1.455-1.466,1.187-1.853c-.211-.315-.889-.236-1.628.14l-2.468-3.591a8.775,8.775,0,0,0,2.218-2.789l4.181,1.156c-.114.822.033,1.479.4,1.587.454.127,1.056-.649,1.363-1.73S3045.963,1075.341,3045.51,1075.214Z" transform="translate(-2686.533 -950.102)" fill="#3b84ff"/>
    <path id="Path_2437" data-name="Path 2437" d="M3060.41,1116.371l-2.174-1.253a.4.4,0,0,1-.144-.541h0a.395.395,0,0,1,.541-.146l2.172,1.255a.4.4,0,0,1,.145.541h0A.4.4,0,0,1,3060.41,1116.371Z" transform="translate(-2718.944 -995.018)" fill="#ffc22a"/>
    <path id="Path_2438" data-name="Path 2438" d="M3060.31,1120.01a.782.782,0,1,1,.228.554A.782.782,0,0,1,3060.31,1120.01Z" transform="translate(-2720.735 -998.847)" fill="#ffc22a"/>
    <path id="Path_2439" data-name="Path 2439" d="M3086.1,1115.7l-2.3,1.006a.4.4,0,0,1-.521-.211h0a.4.4,0,0,1,.211-.522l2.3-1.008a.395.395,0,0,1,.52.211h0a.4.4,0,0,1-.209.524Z" transform="translate(-2738.829 -995.453)" fill="#ffc22a"/>
    <path id="Path_2440" data-name="Path 2440" d="M3088.36,1119.994a.784.784,0,1,1,.784.784A.784.784,0,0,1,3088.36,1119.994Z" transform="translate(-2742.86 -998.831)" fill="#ffc22a"/>
    <path id="Path_2441" data-name="Path 2441" d="M1612.72,587.83l.784,1.715,1.024-1.715.655,1.715.98-1.715.49,1.715,1.02-1.715.655,1.715.693-1.715Z" transform="translate(-1272.74 -464.005)" fill="#eaeaea"/>
    <path id="Path_2442" data-name="Path 2442" d="M1622.484,850.745s-34.319-10.377-56.23,19.752,1.018,49.781-30.724,61.5-29.976,49.47-29.976,49.47,24.059-3.931,32.515,5.281c12.409,13.52,47.581-3.591,47.581-3.591S1580.3,954.309,1596,950.2,1622.484,850.745,1622.484,850.745Z" transform="translate(-1493.7 -785.757)" fill="#ff4a1e"/>
    <g id="man" transform="translate(72.338 31.736)">
      <path id="Path_2443" data-name="Path 2443" d="M2274.511,1768.256h-24.046c-1.156-1.413-.731-6.621-.556-8.321.036-.342.577-5.336.577-5.336s7.7-1.772,8.824,3.255c.034.158.076.313.12.465,1.422,4.7,7.795,6.842,11.475,7.436C2273.3,1766.143,2274.184,1767.388,2274.511,1768.256Z" transform="translate(-2153.204 -1531.904)" fill="#4a2c76"/>
      <path id="Path_2444" data-name="Path 2444" d="M2043.316,1303.358a13.381,13.381,0,0,1-5.771,1.781,10.329,10.329,0,0,1-5.193-.894s-16.587-36.472-18.045-51.711c-.442-4.647-5.309-10.833-11.454-17.565-10.8-11.83-25.561-25.35-27.238-35.114a7.866,7.866,0,0,1,2.44-7.588c1.056-.968,2.062-1.855,3.046-2.672,12.423-10.326,19.771-9.379,19.771-9.379s5.735,7.715,12.586,18.167c9.223,14.078,20.464,33.128,22.426,45C2039.307,1264.089,2043.316,1303.358,2043.316,1303.358Z" transform="translate(-1936.907 -1079.079)" fill="#eaeaea"/>
      <path id="Path_2445" data-name="Path 2445" d="M2014.043,1198.385l-10.6,36.584c-10.8-11.83-25.561-25.35-27.238-35.114,1.616-3.114,3.566-6.743,5.492-10.26,12.424-10.326,19.771-9.379,19.771-9.379S2007.192,1187.93,2014.043,1198.385Z" transform="translate(-1937.491 -1078.748)" fill="#c8d1ce"/>
      <path id="Path_2446" data-name="Path 2446" d="M1934.327,1768.256h-24.042c-1.155-1.413-.731-6.621-.555-8.321.036-.342.577-5.336.577-5.336s7.7-1.772,8.824,3.255c.034.158.076.313.12.465,1.422,4.7,7.8,6.842,11.475,7.436C1933.119,1766.143,1934,1767.388,1934.327,1768.256Z" transform="translate(-1884.886 -1531.904)" fill="#4a2c76"/>
      <path id="Path_2447" data-name="Path 2447" d="M1945.969,1124.51s-7.413,61.146-7.983,68.725c-.564,7.5-18.59,52.438-18.845,53.446a15.712,15.712,0,0,1-6.686.689c-3.6-.492-4.884-2.113-4.884-2.113s-.021-45.86,6.175-54.291c8.167-11.122-19.435-55.347,4.54-77.346S1945.969,1124.51,1945.969,1124.51Z" transform="translate(-1883.359 -1020.592)" fill="#eaeaea"/>
      <path id="Path_2448" data-name="Path 2448" d="M2124.909,885.51s14.143,4.531,17.946,14.061,6.464,38.58,6.464,38.58l-9.367-1.654-19.012-17.166Z" transform="translate(-2051.655 -846.058)" fill="#3b84ff"/>
      <path id="Path_2449" data-name="Path 2449" d="M1951.462,892.51c-6.2,14.741-.634,42.871-10.034,48.528s-32.781,5.249-41.909,1.267c-8.824-3.862-1.69-24.862,3.957-47.474q.289-1.153.57-2.311a53.042,53.042,0,0,1,4.043-11.061,62.762,62.762,0,0,1,21.875-24.249l22.5,8.317A37.042,37.042,0,0,1,1951.462,892.51Z" transform="translate(-1873.733 -823.575)" fill="#3b84ff"/>
      <path id="Path_2450" data-name="Path 2450" d="M2059.14,801.125s9.675-2.981,13.547-15.016l4.54,7.447,3.084,5.057a55.238,55.238,0,0,1-2.535,5.492q-.7,1.356-1.616,3C2080.113,813.663,2059.14,801.125,2059.14,801.125Z" transform="translate(-2002.91 -767.494)" fill="#ffb792"/>
      <path id="Path_2451" data-name="Path 2451" d="M2123.078,819.926a55.157,55.157,0,0,1-2.535,5.492c-4.514-2.554-7.182-12.288-7.182-12.288a16.286,16.286,0,0,1,6.623,1.732Z" transform="translate(-2045.676 -788.807)" fill="#f2ac8c"/>
      <path id="Path_2452" data-name="Path 2452" d="M2123.761,752.12s-14.466-2.636-12.675-11.619,1.113-15.375,10.423-14.071,10.423,5.087,10.562,8.239S2127.57,752.574,2123.761,752.12Z" transform="translate(-2043.762 -720.288)" fill="#ffb792"/>
      <path id="Path_2453" data-name="Path 2453" d="M2088.326,1023.468s36.379-7.436,58.834,11.691c0,0,1.426,50.19-40.175,66.194C2106.986,1101.352,2068.739,1074.226,2088.326,1023.468Z" transform="translate(-2021.527 -953.915)" fill="#ff4a1e"/>
      <path id="Path_2454" data-name="Path 2454" d="M2118.906,1111.432s-34.689-24.6-16.923-70.641a86.83,86.83,0,0,1,29.093-.112c8.325,1.479,17.084,4.6,24.268,10.717C2155.347,1051.4,2156.639,1096.917,2118.906,1111.432Z" transform="translate(-2032.709 -967.686)" fill="url(#linear-gradient)"/>
      <path id="Path_2455" data-name="Path 2455" d="M1951.862,972s-10.562,9.155-18.112,13.366q.29-1.153.57-2.311A53.055,53.055,0,0,1,1938.364,972Z" transform="translate(-1904.008 -914.31)" fill="#4a2c76"/>
      <path id="Path_2456" data-name="Path 2456" d="M1999.518,975.728l-80.137,40.031L1915,1007l80.169-40.042a13.353,13.353,0,0,1,8.211-1.217l3.862.657-1.779,3.46a13.433,13.433,0,0,1-5.944,5.871Z" transform="translate(-1889.219 -909.256)" fill="#eaeaea"/>
      <path id="Path_2457" data-name="Path 2457" d="M2007.241,966.4l-90.049,44.981L1915,1007l80.169-40.042a13.353,13.353,0,0,1,8.211-1.217Z" transform="translate(-1889.219 -909.25)" fill="#c8d1ce"/>
      <path id="Path_2458" data-name="Path 2458" d="M1899.71,1146.224l-11.152-22.323a1.525,1.525,0,0,1,.68-2.039l2.267-1.132a1.525,1.525,0,0,1,2.036.68l11.152,22.325a1.525,1.525,0,0,1-.68,2.036l-2.267,1.132A1.523,1.523,0,0,1,1899.71,1146.224Z" transform="translate(-1868.238 -1031.621)" fill="#ffdd71"/>
      <path id="Path_2459" data-name="Path 2459" d="M1871.652,1176.722l-1.187-2.375a1.591,1.591,0,0,0-2.129-.71l-11.475,5.731a1.593,1.593,0,0,0-.71,2.129l1.185,2.374a1.591,1.591,0,0,0,2.129.71l11.475-5.731a1.593,1.593,0,0,0,.712-2.129Z" transform="translate(-1842.671 -1073.36)" fill="#ffdd71"/>
      <path id="Path_2460" data-name="Path 2460" d="M1846.668,1198.206l-4.324-8.661a1.356,1.356,0,0,1,.6-1.812l1.208-.6a1.354,1.354,0,0,1,1.813.6l4.324,8.661a1.356,1.356,0,0,1-.6,1.813l-1.208.6A1.354,1.354,0,0,1,1846.668,1198.206Z" transform="translate(-1831.8 -1084.033)" fill="#ffdd71"/>
      <path id="Path_2461" data-name="Path 2461" d="M1850.5,1151.547a18.631,18.631,0,0,1,5.9,2.584c2.366,1.762,5.516,7.917,2.934,9.206s-5.089,2.877-6.23,1.665a21.486,21.486,0,0,1-2.18-3.052.906.906,0,0,0-1.179-.336h0s-4.033-4.029-3.931-8.917C1845.834,1151.283,1850.5,1151.547,1850.5,1151.547Z" transform="translate(-1834.646 -1056.041)" fill="#ffb792"/>
      <path id="Path_2462" data-name="Path 2462" d="M1849.19,853.574s-6.088-2.877-17.677,1.286-36.683,22.7-38.394,30.113,11,33.377,11,33.377a8.872,8.872,0,0,0,3.568-.423,8.326,8.326,0,0,0,2.934-1.624s-2.385-27.914-.961-27.914,35.338-9.432,35.338-9.432Z" transform="translate(-1792.96 -819.943)" fill="#3b84ff"/>
      <path id="Path_2463" data-name="Path 2463" d="M2142.7,789.507s-3.944.036-12.576-4.066l-3.655,4.859s3.143,8.091,10.6,8.682C2140.267,799.237,2142.7,789.507,2142.7,789.507Z" transform="translate(-2056.017 -766.966)" fill="#eaeaea"/>
      <path id="Path_2464" data-name="Path 2464" d="M687.719,219.209l-.972-5.133-1.008-.365,1.686,6.8Z" transform="translate(-613.432 -200.304)" fill="#eaeaea"/>
      <path id="Path_2465" data-name="Path 2465" d="M2115.369,778.745c-.211-.084-4.286-7.315-4.286-7.315l-.192.991,3.783,7.677Z" transform="translate(-2043.728 -755.916)" fill="#eaeaea"/>
      <path id="Path_2466" data-name="Path 2466" d="M2109.989,717.375s1.479.268,1.952-1.743,1.377-4.531,2.776-3.5,1.027,2.324,1.935,1.817,2.03-3.591,6.777-2.125,6.059,3.767,8.571,3.591,3.8-3.42,3.8-3.42a3.959,3.959,0,0,1-2.112.991s5.4-3.652,2.427-8.555-8.046-4.225-10.526-4.941c-5.461-1.6-9.031-2.516-12.041.37S2107.762,712.761,2109.989,717.375Z" transform="translate(-2042.381 -697.988)" fill="#3b84ff"/>
      <path id="Path_2467" data-name="Path 2467" d="M2201,1115.823s18.6-32.215,12.17-70.753c8.325,1.479,17.084,4.6,24.268,10.717C2237.44,1055.789,2238.733,1101.308,2201,1115.823Z" transform="translate(-2114.802 -972.081)" fill="#ff7042"/>
    </g>
    <path id="Path_2468" data-name="Path 2468" d="M2035.34,846.181s11.593,12.189,20.438,14.462c0,0-8.049-13.892-11.276-15.548S2035.34,846.181,2035.34,846.181Z" transform="translate(-1911.839 -782.05)" fill="#ff4a1e"/>
    <path id="Path_2469" data-name="Path 2469" d="M2132.09,885.9l1.614-7.43,1.033-1.886s4.121,1.295,4.28,2.746S2132.09,885.9,2132.09,885.9Z" transform="translate(-1988.181 -807.318)" fill="#ff4a1e"/>
    <path id="Path_2470" data-name="Path 2470" d="M2119.97,926.289a4.542,4.542,0,0,1,2.364-5.609A4.277,4.277,0,0,1,2119.97,926.289Z" transform="translate(-1978.417 -842.126)" fill="#ff4a1e"/>
    <path id="Path_2471" data-name="Path 2471" d="M2135.557,928.665s.773-7.035-3.467-7.985a25.037,25.037,0,0,0,.67,3.993C2133.269,926.574,2135.557,928.665,2135.557,928.665Z" transform="translate(-1988.178 -842.128)" fill="#ff4a1e"/>
    <path id="Path_2472" data-name="Path 2472" d="M2126.66,916.389a1.147,1.147,0,1,1,.335.813A1.149,1.149,0,0,1,2126.66,916.389Z" transform="translate(-1983.892 -837.829)" fill="#ff4a1e"/>
  </g>
</svg>
