<svg height="512" viewBox="0 0 48 58" width="512" xmlns="http://www.w3.org/2000/svg"><g id="Page-1" fill="none" fill-rule="evenodd"><g id="002---Protection-Against-Germs" fill-rule="nonzero"><path id="Shape" d="m24 0-23.316 7.772c-.40854275.13607193-.68410369.51839259-.684.949v20.279s0 22 24 29c24-7 24-29 24-29v-20.279c.0001037-.43060741-.2754572-.81292807-.684-.949z" fill="#26b99a"/><path id="Shape" d="m47.316 7.772c.4085428.13607193.6841037.51839259.684.949v20.279s0 22-24 29v-58z" fill="#14a085"/><path id="Shape" d="m4 15c-.55228475 0-1-.4477153-1-1v-3.117c-.00010369-.4306074.27545725-.8129281.684-.949l5.065-1.688c.33940231-.11289594.71325225-.03614711.98072416.20133595.2674719.23748307.38793044.59962103.31600004.95000002-.07193046.350379-.32532188.63576813-.6647242.74866403l-4.381 1.454v2.4c0 .5522847-.44771525 1-1 1z" fill="#fff"/><path id="Shape" d="m24 20c-.5522847 0-1-.4477153-1-1v-4c0-.5522847.4477153-1 1-1s1 .4477153 1 1v4c0 .5522847-.4477153 1-1 1z" fill="#f29c1f"/><circle id="Oval" cx="24" cy="12" fill="#f3d55b" r="3"/><path id="Shape" d="m24 44c-.5522847 0-1-.4477153-1-1v-4c0-.5522847.4477153-1 1-1s1 .4477153 1 1v4c0 .5522847-.4477153 1-1 1z" fill="#f29c1f"/><circle id="Oval" cx="24" cy="46" fill="#f3d55b" r="3"/><path id="Shape" d="m38 30h-4c-.5522847 0-1-.4477153-1-1s.4477153-1 1-1h4c.5522847 0 1 .4477153 1 1s-.4477153 1-1 1z" fill="#f29c1f"/><circle id="Oval" cx="41" cy="29" fill="#f3d55b" r="3"/><path id="Shape" d="m14 30h-4c-.55228475 0-1-.4477153-1-1s.44771525-1 1-1h4c.5522847 0 1 .4477153 1 1s-.4477153 1-1 1z" fill="#f29c1f"/><g fill="#e57e25"><path id="Shape" d="m16.857 22.857c-.2651948-.0000566-.5195073-.1054506-.707-.293l-2.857-2.857c-.3789722-.3923789-.3735524-1.0160848.0121814-1.4018186s1.0094397-.3911536 1.4018186-.0121814l2.857 2.857c.2859079.2859943.3714219.7160366.216678 1.0896546-.1547439.3736179-.5192821.6172591-.923678.6173454z"/><path id="Shape" d="m34 40c-.2651948-.0000566-.5195073-.1054506-.707-.293l-2.857-2.857c-.3789722-.3923789-.3735524-1.0160848.0121814-1.4018186s1.0094397-.3911536 1.4018186-.0121814l2.857 2.857c.2859079.2859943.3714219.7160366.216678 1.0896546-.1547439.3736179-.5192821.6172591-.923678.6173454z"/><path id="Shape" d="m31.143 22.857c-.4043959-.0000863-.7689341-.2437275-.923678-.6173454-.1547439-.373618-.0692299-.8036603.216678-1.0896546l2.857-2.857c.3923789-.3789722 1.0160848-.3735524 1.4018186.0121814s.3911536 1.0094397.0121814 1.4018186l-2.857 2.857c-.1874927.1875494-.4418052.2929434-.707.293z"/><path id="Shape" d="m14 40c-.4043959-.0000863-.7689341-.2437275-.923678-.6173454-.1547439-.373618-.0692299-.8036603.216678-1.0896546l2.857-2.857c.3923789-.3789722 1.0160848-.3735524 1.4018186.0121814s.3911536 1.0094397.0121814 1.4018186l-2.857 2.857c-.1874927.1875494-.4418052.2929434-.707.293z"/></g><circle id="Oval" cx="7" cy="29" fill="#f3d55b" r="3"/><circle id="Oval" cx="24" cy="29" fill="#f3d55b" r="10"/><path id="Shape" d="m24 36c-.5522847 0-1-.4477153-1-1s.4477153-1 1-1c2.7600532-.0033061 4.9966939-2.2399468 5-5 0-.5522847.4477153-1 1-1s1 .4477153 1 1c-.0044086 3.8641657-3.1358343 6.9955914-7 7z" fill="#f0c419"/><circle id="Oval" cx="21" cy="25" fill="#ecf0f1" r="1"/><circle id="Oval" cx="23" cy="28" fill="#ecf0f1" r="1"/><circle id="Oval" cx="19" cy="28" fill="#ecf0f1" r="1"/></g></g></svg>